<svg width="234" height="50" viewBox="0 0 234 50" fill="none" xmlns="http://www.w3.org/2000/svg">
<path d="M48.1928 38.1987C47.8 37.6208 47.2865 37.121 46.6822 36.7286C46.0781 36.3362 45.3952 36.0591 44.6738 35.9134C41.9137 35.3201 39.5198 33.7411 38.0154 31.5214C36.511 29.3017 36.0183 26.6219 36.645 24.0675C36.886 23.0803 36.8059 22.0492 36.415 21.1038C36.024 20.1584 35.3395 19.3409 34.4475 18.7539C33.5555 18.167 32.4957 17.8367 31.4012 17.8046C30.3067 17.7725 29.2265 18.04 28.2959 18.5735C27.3654 19.1071 26.6263 19.8828 26.1712 20.8033C25.7162 21.7239 25.5655 22.7482 25.7383 23.7476C25.911 24.747 26.3994 25.677 27.1421 26.4207C27.8848 27.1644 28.8487 27.6887 29.9127 27.9277C31.2892 28.2147 32.5909 28.75 33.7432 29.5028C34.8955 30.2557 35.8756 31.2114 36.6275 32.315C37.3794 33.4187 37.8883 34.6487 38.1249 35.9344C38.3615 37.2202 38.3212 38.5365 38.0064 39.8079C37.8199 40.6275 37.8532 41.4768 38.1032 42.2817C38.3533 43.0867 38.8126 43.8229 39.441 44.4263C40.0695 45.0296 40.848 45.4817 41.7088 45.7432C42.5697 46.0047 43.4866 46.0676 44.3797 45.9266C45.2729 45.7855 46.1152 45.4446 46.8332 44.9337C47.5512 44.4228 48.1231 43.7574 48.4991 42.9954C48.875 42.2334 49.0437 41.398 48.9904 40.5619C48.9369 39.7259 48.6632 38.9146 48.1928 38.1987Z" fill="#414042"/>
<path d="M14.0305 32.4986C15.0026 32.9889 16.1108 33.1995 17.2132 33.1036C18.3156 33.0076 19.3618 32.6094 20.2177 31.96C21.0736 31.3106 21.7 30.4397 22.0165 29.459C22.3331 28.4783 22.3255 27.4325 21.9945 26.4558C21.575 25.2105 21.4256 23.9009 21.5548 22.602C21.684 21.3032 22.0892 20.0407 22.7474 18.8869C23.4055 17.7332 24.3036 16.7108 25.39 15.8784C26.4765 15.0461 27.73 14.4202 29.0787 14.0365C30.1248 13.7336 31.0505 13.1516 31.7394 12.3636C32.4284 11.5756 32.8498 10.6169 32.9506 9.60805C33.0514 8.5992 32.8271 7.58532 32.306 6.69408C31.7848 5.80277 30.9901 5.07386 30.0218 4.59909C29.0534 4.12432 27.9548 3.92482 26.8642 4.02583C25.7735 4.12677 24.7395 4.52362 23.8923 5.1665C23.0451 5.80932 22.4225 6.66942 22.1029 7.63853C21.7834 8.60763 21.7811 9.64245 22.0963 10.6127C22.9239 13.1177 22.644 15.8238 21.3181 18.1385C19.9921 20.4532 17.7281 22.1882 15.0214 22.9636C13.9529 23.25 13.002 23.8263 12.2918 24.6178C11.5816 25.4094 11.1448 26.3797 11.0381 27.4032C10.9314 28.4268 11.1595 29.4564 11.6931 30.3587C12.2266 31.2611 13.0409 31.9946 14.0305 32.4643V32.4986Z" fill="#414042"/>
<path d="M28.3251 31.6596C27.5864 31.6836 26.8603 31.8436 26.1892 32.1302C25.5182 32.4168 24.9158 32.8242 24.4172 33.3287C22.483 35.2408 19.8084 36.3673 16.9782 36.462C14.1478 36.5566 11.3921 35.6116 9.31348 33.8337C8.7764 33.3679 8.14454 33.0054 7.45457 32.7674C6.76466 32.5293 6.03039 32.4205 5.29449 32.4471C4.38868 32.4866 3.50702 32.7304 2.72662 33.1573C1.94615 33.5841 1.29067 34.181 0.817288 34.8958C0.343833 35.6107 0.0669598 36.4219 0.0106869 37.2584C-0.0455179 38.095 0.120579 38.9315 0.494621 39.6951C0.868662 40.4586 1.43915 41.1259 2.15641 41.6388C2.87367 42.1517 3.71578 42.4944 4.60935 42.6373C5.50291 42.7801 6.42077 42.7186 7.28269 42.4582C8.14468 42.1978 8.92453 41.7463 9.55422 41.1432C10.5122 40.1846 11.6652 39.4101 12.9475 38.8641C14.2298 38.318 15.616 38.0111 17.0267 37.9611C18.4375 37.911 19.8452 38.1186 21.169 38.5721C22.4928 39.0257 23.7068 39.7161 24.7414 40.604C25.4149 41.1665 26.2274 41.5679 27.1076 41.7731C27.9879 41.9783 28.9091 41.981 29.7908 41.781C30.6724 41.581 31.4875 41.1844 32.165 40.6259C32.8424 40.0673 33.3615 39.3638 33.6768 38.577C33.992 37.7901 34.0939 36.9439 33.9735 36.1122C33.8531 35.2806 33.514 34.4889 32.9859 33.8064C32.4579 33.1239 31.757 32.5714 30.9445 32.1971C30.132 31.8229 29.2327 31.6383 28.3251 31.6596Z" fill="#414042"/>
<path d="M86.9912 16.4961L84.709 18.6582C83.0674 17.0433 81.2656 15.8221 79.3037 14.9946C77.3551 14.1538 75.4533 13.7334 73.5981 13.7334C71.2892 13.7334 69.0871 14.3006 66.9917 15.4351C64.9097 16.5695 63.2948 18.111 62.147 20.0596C60.9992 21.9948 60.4253 24.0435 60.4253 26.2056C60.4253 28.4211 61.0192 30.5298 62.207 32.5317C63.3949 34.5203 65.0365 36.0885 67.1318 37.2363C69.2272 38.3708 71.5228 38.938 74.0186 38.938C77.0482 38.938 79.6107 38.0838 81.7061 36.3755C83.8014 34.6672 85.0426 32.4517 85.4297 29.729H76.0405V26.8862H88.7329C88.7062 31.4373 87.3516 35.0542 84.6689 37.7368C81.9997 40.4061 78.4229 41.7407 73.9385 41.7407C68.4932 41.7407 64.1823 39.8856 61.0059 36.1753C58.5635 33.3192 57.3423 30.016 57.3423 26.2656C57.3423 23.4762 58.043 20.8804 59.4443 18.478C60.8457 16.0757 62.7676 14.2005 65.21 12.8525C67.6523 11.4912 70.415 10.8105 73.498 10.8105C75.9938 10.8105 78.3428 11.2643 80.5449 12.1719C82.7471 13.0661 84.8958 14.5075 86.9912 16.4961ZM112.216 33.7729L114.578 35.0142C113.804 36.5356 112.91 37.7635 111.896 38.6978C110.881 39.632 109.74 40.346 108.472 40.8398C107.204 41.3203 105.77 41.5605 104.168 41.5605C100.618 41.5605 97.8418 40.3994 95.8398 38.0771C93.8379 35.7415 92.8369 33.1056 92.8369 30.1694C92.8369 27.4067 93.6844 24.9443 95.3794 22.7822C97.5282 20.0329 100.404 18.6582 104.008 18.6582C107.718 18.6582 110.681 20.0662 112.896 22.8823C114.471 24.8709 115.272 27.3534 115.299 30.3296H95.7197C95.7731 32.8654 96.5806 34.9474 98.1421 36.5757C99.7036 38.1906 101.632 38.998 103.928 38.998C105.035 38.998 106.11 38.8045 107.151 38.4175C108.205 38.0304 109.099 37.5166 109.833 36.876C110.568 36.2354 111.362 35.201 112.216 33.7729ZM112.216 27.9072C111.842 26.4124 111.295 25.2179 110.574 24.3237C109.867 23.4295 108.926 22.7088 107.751 22.1616C106.577 21.6144 105.342 21.3408 104.048 21.3408C101.912 21.3408 100.077 22.0282 98.5425 23.4028C97.4214 24.4038 96.5739 25.9053 96 27.9072H112.216ZM120.544 19.2188H123.347V23.1226C124.468 21.6278 125.709 20.5133 127.07 19.7793C128.432 19.0319 129.913 18.6582 131.515 18.6582C133.143 18.6582 134.584 19.0719 135.839 19.8994C137.107 20.7269 138.041 21.8413 138.642 23.2427C139.242 24.644 139.542 26.8262 139.542 29.7891V41H136.76V30.6099C136.76 28.1007 136.653 26.4258 136.439 25.585C136.106 24.1436 135.479 23.0625 134.558 22.3418C133.637 21.6077 132.436 21.2407 130.954 21.2407C129.259 21.2407 127.738 21.8013 126.39 22.9224C125.055 24.0435 124.174 25.4315 123.747 27.0864C123.48 28.1675 123.347 30.1427 123.347 33.0122V41H120.544V19.2188ZM145.608 19.2188H148.391V23.2227C149.499 21.7012 150.773 20.5601 152.215 19.7993C153.656 19.0386 155.264 18.6582 157.04 18.6582C160.136 18.6582 162.785 19.7726 164.987 22.0015C167.189 24.2303 168.291 26.9129 168.291 30.0493C168.291 33.2524 167.196 35.9751 165.007 38.2173C162.832 40.4461 160.203 41.5605 157.12 41.5605C155.385 41.5605 153.79 41.2002 152.335 40.4795C150.88 39.7588 149.566 38.6844 148.391 37.2563V48.9678H145.608V19.2188ZM156.819 21.3608C154.39 21.3608 152.342 22.2083 150.673 23.9033C149.018 25.5983 148.191 27.707 148.191 30.2295C148.191 31.8844 148.558 33.3726 149.292 34.6938C150.039 36.0151 151.1 37.0628 152.475 37.8369C153.863 38.611 155.325 38.998 156.859 38.998C158.368 38.998 159.782 38.611 161.104 37.8369C162.438 37.0495 163.499 35.9551 164.287 34.5537C165.074 33.1523 165.468 31.6842 165.468 30.1494C165.468 28.6012 165.074 27.1331 164.287 25.7451C163.513 24.3571 162.465 23.2827 161.144 22.522C159.822 21.7479 158.381 21.3608 156.819 21.3608ZM174.537 10.25C175.177 10.25 175.724 10.4769 176.178 10.9307C176.632 11.3844 176.859 11.9316 176.859 12.5723C176.859 13.1995 176.632 13.7401 176.178 14.1938C175.724 14.6476 175.177 14.8745 174.537 14.8745C173.909 14.8745 173.369 14.6476 172.915 14.1938C172.461 13.7401 172.234 13.1995 172.234 12.5723C172.234 11.9316 172.461 11.3844 172.915 10.9307C173.369 10.4769 173.909 10.25 174.537 10.25ZM173.135 19.2188H175.958V41H173.135V19.2188ZM179.281 19.2188H182.645L188.41 27.2866L194.176 19.2188H197.539L190.092 29.5688L198.48 41H195.077L188.41 31.8511L181.844 41H178.5L186.749 29.5688L179.281 19.2188ZM219.801 33.7729L222.163 35.0142C221.389 36.5356 220.495 37.7635 219.48 38.6978C218.466 39.632 217.325 40.346 216.057 40.8398C214.789 41.3203 213.354 41.5605 211.753 41.5605C208.203 41.5605 205.427 40.3994 203.425 38.0771C201.423 35.7415 200.422 33.1056 200.422 30.1694C200.422 27.4067 201.269 24.9443 202.964 22.7822C205.113 20.0329 207.989 18.6582 211.593 18.6582C215.303 18.6582 218.266 20.0662 220.481 22.8823C222.056 24.8709 222.857 27.3534 222.884 30.3296H203.305C203.358 32.8654 204.166 34.9474 205.727 36.5757C207.289 38.1906 209.217 38.998 211.513 38.998C212.62 38.998 213.695 38.8045 214.736 38.4175C215.79 38.0304 216.684 37.5166 217.418 36.876C218.153 36.2354 218.947 35.201 219.801 33.7729ZM219.801 27.9072C219.427 26.4124 218.88 25.2179 218.159 24.3237C217.452 23.4295 216.511 22.7088 215.336 22.1616C214.162 21.6144 212.927 21.3408 211.633 21.3408C209.497 21.3408 207.662 22.0282 206.127 23.4028C205.006 24.4038 204.159 25.9053 203.585 27.9072H219.801ZM227.708 10.8105H230.511V41H227.708V10.8105Z" fill="black"/>
</svg>
