<svg width="32" height="32" viewBox="0 0 32 32" fill="none" xmlns="http://www.w3.org/2000/svg">
<g id="instagram">
<path id="Vector" d="M23.1201 7.28008C22.8036 7.28008 22.4943 7.37392 22.2312 7.54973C21.968 7.72554 21.763 7.97543 21.6419 8.26779C21.5208 8.56015 21.4891 8.88186 21.5508 9.19223C21.6126 9.50259 21.7649 9.78769 21.9887 10.0115C22.2125 10.2352 22.4976 10.3876 22.8079 10.4493C23.1183 10.5111 23.44 10.4794 23.7324 10.3583C24.0247 10.2372 24.2746 10.0321 24.4504 9.76899C24.6262 9.50588 24.7201 9.19653 24.7201 8.88008C24.7201 8.45573 24.5515 8.04877 24.2515 7.74871C23.9514 7.44865 23.5444 7.28008 23.1201 7.28008ZM29.2534 10.5067C29.2275 9.40048 29.0203 8.30595 28.6401 7.26675C28.3011 6.37759 27.7734 5.57245 27.0934 4.90675C26.4332 4.22332 25.6262 3.69898 24.7334 3.37341C23.697 2.98163 22.6012 2.76969 21.4934 2.74675C20.0801 2.66675 19.6267 2.66675 16.0001 2.66675C12.3734 2.66675 11.9201 2.66675 10.5067 2.74675C9.39895 2.76969 8.30321 2.98163 7.26675 3.37341C6.37565 3.70228 5.56933 4.22616 4.90675 4.90675C4.22332 5.56698 3.69898 6.374 3.37341 7.26675C2.98163 8.30321 2.76969 9.39895 2.74675 10.5067C2.66675 11.9201 2.66675 12.3734 2.66675 16.0001C2.66675 19.6267 2.66675 20.0801 2.74675 21.4934C2.76969 22.6012 2.98163 23.697 3.37341 24.7334C3.69898 25.6262 4.22332 26.4332 4.90675 27.0934C5.56933 27.774 6.37565 28.2979 7.26675 28.6267C8.30321 29.0185 9.39895 29.2305 10.5067 29.2534C11.9201 29.3334 12.3734 29.3334 16.0001 29.3334C19.6267 29.3334 20.0801 29.3334 21.4934 29.2534C22.6012 29.2305 23.697 29.0185 24.7334 28.6267C25.6262 28.3012 26.4332 27.7768 27.0934 27.0934C27.7764 26.4302 28.3045 25.6243 28.6401 24.7334C29.0203 23.6942 29.2275 22.5997 29.2534 21.4934C29.2534 20.0801 29.3334 19.6267 29.3334 16.0001C29.3334 12.3734 29.3334 11.9201 29.2534 10.5067ZM26.8534 21.3334C26.8437 22.1798 26.6904 23.0184 26.4001 23.8134C26.1872 24.3937 25.8453 24.918 25.4001 25.3467C24.9676 25.7874 24.4444 26.1287 23.8667 26.3467C23.0717 26.6371 22.2331 26.7904 21.3867 26.8001C20.0534 26.8667 19.5601 26.8801 16.0534 26.8801C12.5467 26.8801 12.0534 26.8801 10.7201 26.8001C9.84127 26.8165 8.96621 26.6812 8.13341 26.4001C7.58112 26.1708 7.08189 25.8305 6.66675 25.4001C6.2242 24.9717 5.88654 24.447 5.68008 23.8667C5.35456 23.0603 5.17401 22.2027 5.14675 21.3334C5.14675 20.0001 5.06675 19.5067 5.06675 16.0001C5.06675 12.4934 5.06675 12.0001 5.14675 10.6667C5.15272 9.80149 5.31068 8.94401 5.61341 8.13341C5.84814 7.57063 6.20843 7.06896 6.66675 6.66675C7.07183 6.20831 7.57246 5.84421 8.13341 5.60008C8.94615 5.30681 9.80274 5.15352 10.6667 5.14675C12.0001 5.14675 12.4934 5.06675 16.0001 5.06675C19.5067 5.06675 20.0001 5.06675 21.3334 5.14675C22.1798 5.15646 23.0184 5.30974 23.8134 5.60008C24.4193 5.82495 24.9631 6.19054 25.4001 6.66675C25.837 7.07632 26.1784 7.57706 26.4001 8.13341C26.6964 8.94533 26.8498 9.80245 26.8534 10.6667C26.9201 12.0001 26.9334 12.4934 26.9334 16.0001C26.9334 19.5067 26.9201 20.0001 26.8534 21.3334ZM16.0001 9.16008C14.6478 9.16272 13.3267 9.56612 12.2036 10.3193C11.0805 11.0725 10.2059 12.1417 9.69026 13.3918C9.1746 14.6418 9.04105 16.0167 9.30647 17.3427C9.5719 18.6686 10.2244 19.8861 11.1815 20.8414C12.1386 21.7966 13.3574 22.4468 14.6839 22.7096C16.0104 22.9725 17.385 22.8362 18.634 22.3181C19.8831 21.8 20.9506 20.9233 21.7016 19.7988C22.4526 18.6742 22.8534 17.3523 22.8534 16.0001C22.8552 15.1002 22.679 14.2089 22.3351 13.3774C21.9911 12.5458 21.4862 11.7905 20.8492 11.1548C20.2123 10.5191 19.456 10.0157 18.6238 9.67332C17.7916 9.33099 16.8999 9.15656 16.0001 9.16008ZM16.0001 20.4401C15.1219 20.4401 14.2635 20.1797 13.5333 19.6918C12.8032 19.2039 12.2341 18.5105 11.8981 17.6992C11.562 16.8879 11.4741 15.9952 11.6454 15.1339C11.8167 14.2726 12.2396 13.4815 12.8605 12.8605C13.4815 12.2396 14.2726 11.8167 15.1339 11.6454C15.9952 11.4741 16.8879 11.562 17.6992 11.8981C18.5105 12.2341 19.2039 12.8032 19.6918 13.5333C20.1797 14.2635 20.4401 15.1219 20.4401 16.0001C20.4401 16.5831 20.3252 17.1605 20.1021 17.6992C19.879 18.2379 19.5519 18.7273 19.1396 19.1396C18.7273 19.5519 18.2379 19.879 17.6992 20.1021C17.1605 20.3252 16.5831 20.4401 16.0001 20.4401Z" fill="black"/>
</g>
</svg>
